<svg viewBox="0 0 320 121.09662264727345" height="121.09662264727345" width="320" xmlns="http://www.w3.org/2000/svg" xmlns:xlink="http://www.w3.org/1999/xlink">
	<defs id="SvgjsDefs1001"></defs>
		<g
            id="SvgjsG1007"
            featurekey="5TMTKC-0"
            transform="matrix(1.481920662884531,0,0,1.481920662884531,-19.11529346601335,-4.445761988653593)"
            fill="#15eda3"
            data-darkreader-inline-fill=""
            style="--darkreader-inline-fill: #0ebc8f"
        >
        <path
            xmlns="http://www.w3.org/2000/svg"
            fill="none"
            stroke="#15eda3"
            stroke-width="3"
            stroke-miterlimit="10"
            d="M80.379,69.34c0,8.215-6.661,14.876-14.875,14.876  H27.775c-8.216,0-14.876-6.661-14.876-14.876V31.612c0-8.216,6.66-14.876,14.876-14.876h37.729c8.214,0,14.875,6.66,14.875,14.876  V69.34z"
            data-darkreader-inline-stroke=""
            style="--darkreader-inline-stroke: #2cefac"
        ></path>
        <path
            xmlns="http://www.w3.org/2000/svg"
            fill="none"
            stroke="#15eda3"
            stroke-width="2"
            stroke-miterlimit="10"
            d="M68.236,65.281  c2.071,5.175-0.444,11.048-5.619,13.121l0,0c-5.173,2.071-11.049-0.443-13.119-5.619l-5.076-12.678  c-2.071-5.175,0.444-11.049,5.619-13.12l0,0c5.175-2.072,11.048,0.444,13.12,5.619L68.236,65.281z"
            data-darkreader-inline-stroke=""
            style="--darkreader-inline-stroke: #2cefac"
        ></path>
        <path
            xmlns="http://www.w3.org/2000/svg"
            fill="none"
            stroke="#15eda3"
            stroke-linecap="round"
            stroke-miterlimit="10"
            d="M50.041,46.985  C42.618,29.316,29.363,32.045,28.583,3"
            data-darkreader-inline-stroke=""
            style="--darkreader-inline-stroke: #2cefac"
        ></path>
        <path
            xmlns="http://www.w3.org/2000/svg"
            fill="none"
            stroke="#15eda3"
            stroke-width="2"
            stroke-linecap="round"
            stroke-miterlimit="10"
            d="M54.105,57.679l-1.563-4.109  "
            data-darkreader-inline-stroke=""
            style="--darkreader-inline-stroke: #2cefac"
        ></path>
        <path
            xmlns="http://www.w3.org/2000/svg"
            fill="none"
            stroke="#15eda3"
            stroke-width="0.5"
            stroke-miterlimit="10"
            d="M58.101,46.898  c0.363,0.598,0.686,1.24,0.959,1.923l5.075,12.677c2.071,5.175,0.517,10.663-3.472,12.262l0,0  c-3.988,1.597-8.902-1.303-10.973-6.479l-5.076-12.678c-0.216-0.541-0.393-1.085-0.531-1.628"
            data-darkreader-inline-stroke=""
            style="--darkreader-inline-stroke: #2cefac"
        ></path>
    </g>
    <g
        id="SvgjsG1008"
        featurekey="7UBp9i-0"
        transform="matrix(1.8450181645016854,0,0,1.8450181645016854,117.4538747218421,32.44649648615058)"
        fill="#15eda3"
        data-darkreader-inline-fill=""
        style="--darkreader-inline-fill: #0ebc8f"
    >
        <path
            d="M12.06 5.720000000000001 l0 2.64 l-7.54 0 l0 3.06 l6.92 0 l0 2.44 l-6.92 0 l0 3.5 l7.7 0 l0 2.64 l-10.84 0 l0 -14.28 l10.68 0 z M18.12 5.720000000000001 c0.24 0 0.74 0.02668 1.5 0.08002 l0 2.12 c-0.37334 -0.04 -0.71334 -0.06 -1.02 -0.06 c-0.41334 0 -0.7 0.09 -0.86 0.27 s-0.24 0.49 -0.24 0.93 l0 0.6 l1.96 0 l0 1.9 l-1.96 0 l0 8.44 l-2.84 0 l0 -8.44 l-1.7 0 l0 -1.9 l1.7 0 l0 -0.76 c0 -1.0133 0.30334 -1.7967 0.91 -2.35 s1.4567 -0.83 2.55 -0.83 z M26.740000000000002 9.38 c0.24 0 0.44668 0.03334 0.62002 0.1 l0 2.64 c-0.30666 -0.06666 -0.64666 -0.1 -1.02 -0.1 c-1.8667 0 -2.8 1.1067 -2.8 3.32 l0 4.66 l-2.84 0 l0 -10.34 l2.7 0 l0 1.92 l0.04 0 c0.28 -0.66666 0.72334 -1.2 1.33 -1.6 s1.2633 -0.6 1.97 -0.6 z M32.900000000000006 9.38 c0.97334 0 1.84 0.22664 2.6 0.67998 s1.3567 1.11 1.79 1.97 s0.65 1.85 0.65 2.97 c0 0.10666 -0.0066602 0.28 -0.02 0.52 l-7.46 0 c0.02666 0.82666 0.24332 1.47 0.64998 1.93 s1.03 0.69 1.87 0.69 c0.52 0 0.99666 -0.13 1.43 -0.39 s0.71 -0.57666 0.83 -0.95 l2.5 0 c-0.73334 2.32 -2.3466 3.48 -4.84 3.48 c-0.94666 -0.01334 -1.8233 -0.22 -2.63 -0.62 s-1.45 -1.0233 -1.93 -1.87 s-0.72 -1.83 -0.72 -2.95 c0 -1.0533 0.24334 -2.0134 0.73 -2.88 s1.1333 -1.5133 1.94 -1.94 s1.6767 -0.64 2.61 -0.64 z M35.08 13.719999999999999 c-0.13334 -0.77334 -0.38 -1.3333 -0.74 -1.68 s-0.87334 -0.52 -1.54 -0.52 c-0.69334 0 -1.24 0.19666 -1.64 0.59 s-0.63334 0.93 -0.7 1.61 l4.62 0 z M45.540000000000006 9.38 c1.32 0 2.2766 0.33338 2.87 1 s0.89 1.7267 0.89 3.18 l0 6.44 l-2.84 0 l0 -5.86 c0 -0.85334 -0.13666 -1.4867 -0.41 -1.9 s-0.74334 -0.62 -1.41 -0.62 c-0.77334 0 -1.3333 0.23334 -1.68 0.7 s-0.52 1.2333 -0.52 2.3 l0 5.38 l-2.84 0 l0 -10.34 l2.7 0 l0 1.44 l0.06 0 c0.70666 -1.1467 1.7667 -1.72 3.18 -1.72 z M64.06 5.720000000000001 c3.0266 0 4.54 1.1733 4.54 3.52 c0 1.3467 -0.64666 2.3466 -1.94 3 c0.88 0.25334 1.5367 0.69668 1.97 1.33 s0.65 1.3967 0.65 2.29 c0 1.28 -0.46334 2.29 -1.39 3.03 s-2.1434 1.11 -3.65 1.11 l-6.92 0 l0 -14.28 l6.74 0 z M63.660000000000004 11.5 c1.2667 0 1.9 -0.56666 1.9 -1.7 c0 -1.0933 -0.70666 -1.64 -2.12 -1.64 l-2.98 0 l0 3.34 l3.2 0 z M63.84 17.56 c1.5333 0 2.3 -0.62666 2.3 -1.88 c0 -1.36 -0.74666 -2.04 -2.24 -2.04 l-3.44 0 l0 3.92 l3.38 0 z M74.02000000000001 5.720000000000001 l0 14.28 l-2.84 0 l0 -14.28 l2.84 0 z M81.28 9.38 c1.6533 0 2.96 0.50334 3.92 1.51 s1.44 2.3234 1.44 3.95 c0 1.64 -0.49 2.9566 -1.47 3.95 s-2.2766 1.49 -3.89 1.49 c-1.64 0 -2.94 -0.50334 -3.9 -1.51 s-1.44 -2.3166 -1.44 -3.93 c0 -1.6667 0.49 -2.9934 1.47 -3.98 s2.27 -1.48 3.87 -1.48 z M78.78 14.84 c0 1.0533 0.21334 1.8666 0.64 2.44 s1.0467 0.86 1.86 0.86 c0.84 0 1.47 -0.29334 1.89 -0.88 s0.63 -1.3933 0.63 -2.42 c0 -1.0667 -0.21666 -1.8867 -0.65 -2.46 s-1.0633 -0.86 -1.89 -0.86 c-0.8 0 -1.4133 0.28666 -1.84 0.86 s-0.64 1.3933 -0.64 2.46 z M92.60000000000001 9.38 c1.4267 0 2.4534 0.55332 3.08 1.66 l0.04 0 l0 -1.38 l2.7 0 l0 9.7 c0 1.4933 -0.46334 2.6266 -1.39 3.4 s-2.2434 1.16 -3.95 1.16 c-1.3067 0 -2.3834 -0.31334 -3.23 -0.94 s-1.2967 -1.42 -1.35 -2.38 l2.82 0 c0.22666 0.94666 0.93332 1.42 2.12 1.42 c0.73334 0 1.2967 -0.21666 1.69 -0.65 s0.59 -1.05 0.59 -1.85 l0 -1.42 l-0.04 0 c-0.28 0.50666 -0.69 0.9 -1.23 1.18 s-1.1633 0.42 -1.87 0.42 c-1.3867 0 -2.47 -0.45334 -3.25 -1.36 s-1.17 -2.1866 -1.17 -3.84 c0 -1.4667 0.41 -2.6866 1.23 -3.66 s1.89 -1.46 3.21 -1.46 z M91 14.46 c0 0.97334 0.20336 1.7333 0.61002 2.28 s0.97 0.82 1.69 0.82 c0.73334 0 1.32 -0.26334 1.76 -0.79 s0.66 -1.2233 0.66 -2.09 c0 -1.04 -0.21 -1.8267 -0.63 -2.36 s-1.0233 -0.8 -1.81 -0.8 c-0.73334 0 -1.2967 0.27666 -1.69 0.83 s-0.59 1.2567 -0.59 2.11 z M104.94 9.38 c1.3867 0 2.47 0.28002 3.25 0.84002 s1.2167 1.38 1.31 2.46 l-2.7 0 c-0.04 -0.49334 -0.22 -0.85 -0.54 -1.07 s-0.78666 -0.33 -1.4 -0.33 c-0.53334 0 -0.93 0.08 -1.19 0.24 s-0.39 0.4 -0.39 0.72 c0 0.24 0.08666 0.44 0.26 0.6 s0.43668 0.3 0.79002 0.42 s0.74334 0.22 1.17 0.3 c1.2933 0.25334 2.2066 0.51334 2.74 0.78 s0.92334 0.58666 1.17 0.96 s0.37 0.83334 0.37 1.38 c0 1.16 -0.42334 2.05 -1.27 2.67 s-1.9967 0.93 -3.45 0.93 c-1.52 0 -2.7034 -0.32666 -3.55 -0.98 s-1.2833 -1.54 -1.31 -2.66 l2.7 0 c0 0.53334 0.20666 0.95668 0.62 1.27 s0.93334 0.47 1.56 0.47 c0.53334 0 0.97668 -0.11666 1.33 -0.35 s0.53 -0.55668 0.53 -0.97002 c0 -0.26666 -0.11 -0.48666 -0.33 -0.66 s-0.53 -0.32668 -0.93 -0.46002 s-1.02 -0.28668 -1.86 -0.46002 c-0.66666 -0.13334 -1.26 -0.31334 -1.78 -0.54 s-0.91666 -0.52332 -1.19 -0.88998 s-0.41 -0.81666 -0.41 -1.35 c0 -0.68 0.16334 -1.2733 0.49 -1.78 s0.82666 -0.89 1.5 -1.15 s1.51 -0.39 2.51 -0.39 z"
        ></path>
    </g>
</svg>